<svg width="512" height="512" viewBox="0 0 512 512" fill="none" xmlns="http://www.w3.org/2000/svg">
<rect width="512" height="512" fill="black"/>
<path d="M168.418 335.588C168.092 335.197 167.932 302.895 168.027 255.113L168.175 175.296H182.779H197.382L255.661 233.433C287.709 265.409 314.088 291.569 314.277 291.569C314.472 291.569 314.626 275.463 314.626 255.77C314.626 235.977 314.395 219.971 314.111 219.971C313.833 219.971 308.496 225.184 302.265 231.551C296.028 237.924 290.697 243.048 290.419 242.942C289.028 242.421 269.596 222.805 269.762 222.095C269.868 221.64 280.206 210.858 292.733 198.136L315.514 175L330.011 175.148L344.508 175.296L344.656 255.622L344.81 335.949H330.183H315.555L257.389 277.812C225.395 245.835 198.891 219.675 198.489 219.675C197.921 219.675 197.761 227.456 197.761 255.326C197.761 278.48 197.968 290.978 198.347 290.978C198.672 290.978 204.193 285.723 210.625 279.297L222.318 267.616L232.969 278.256L243.625 288.895L220.122 312.404L196.625 335.907L182.791 336.079C173.211 336.191 168.796 336.043 168.418 335.588Z" fill="white"/>
</svg>
