<svg width="512" height="512" viewBox="0 0 512 512" fill="none" xmlns="http://www.w3.org/2000/svg">
<rect width="512" height="512" fill="black"/>
<path d="M62.2617 302.643C62.0577 302.398 61.9576 282.154 62.0169 252.208L62.1096 202.185H71.262H80.4145L116.939 238.621C137.024 258.661 153.556 275.056 153.674 275.056C153.797 275.056 153.893 264.962 153.893 252.62C153.893 240.215 153.749 230.184 153.571 230.184C153.396 230.184 150.051 233.451 146.146 237.441C142.238 241.435 138.896 244.647 138.722 244.58C137.851 244.254 125.672 231.96 125.776 231.515C125.843 231.23 132.321 224.473 140.172 216.5L154.45 202L163.535 202.093L172.621 202.185L172.714 252.527L172.81 302.869H163.643H154.476L118.022 266.434C97.9702 246.394 81.3601 229.999 81.1079 229.999C80.7519 229.999 80.6518 234.875 80.6518 252.342C80.6518 266.853 80.7816 274.685 81.0189 274.685C81.2229 274.685 84.6829 271.392 88.7139 267.365L96.0418 260.044L102.717 266.712L109.396 273.38L94.666 288.113L79.9398 302.843L71.2695 302.951C65.2655 303.021 62.499 302.929 62.2617 302.643Z" fill="white"/>
<path d="M273.168 287H251.64L224.856 231.944V287H210.312V218.36H233.256L258.624 270.176V218.36H273.168V287ZM315.469 234.08H329.845V287H315.469V271.088C314.909 273.888 314.085 276.368 312.997 278.528C311.909 280.688 310.581 282.504 309.013 283.976C307.445 285.432 305.637 286.536 303.589 287.288C301.557 288.056 299.317 288.44 296.869 288.44C294.021 288.44 291.501 287.928 289.309 286.904C287.133 285.88 285.301 284.368 283.813 282.368C282.325 280.368 281.197 277.904 280.429 274.976C279.677 272.032 279.301 268.648 279.301 264.824V234.08H293.677V262.424C293.677 266.936 294.525 270.312 296.221 272.552C297.933 274.792 300.517 275.912 303.973 275.912C305.797 275.912 307.421 275.608 308.845 275C310.285 274.376 311.493 273.472 312.469 272.288C313.445 271.088 314.189 269.616 314.701 267.872C315.213 266.128 315.469 264.12 315.469 261.848V234.08ZM350.354 287H335.978V234.08H350.354V252.464C350.834 249.632 351.538 247.08 352.466 244.808C353.41 242.536 354.602 240.608 356.042 239.024C357.482 237.44 359.194 236.224 361.178 235.376C363.162 234.512 365.45 234.08 368.042 234.08H371.21V247.616H365.642C362.698 247.616 360.242 247.92 358.274 248.528C356.322 249.136 354.754 250.064 353.57 251.312C352.402 252.56 351.57 254.144 351.074 256.064C350.594 257.968 350.354 260.224 350.354 262.832V287ZM374.817 253.472C374.817 250.256 375.401 247.368 376.569 244.808C377.753 242.232 379.441 240.048 381.633 238.256C383.841 236.448 386.513 235.064 389.649 234.104C392.785 233.128 396.321 232.64 400.257 232.64C404.289 232.64 407.897 233.16 411.081 234.2C414.265 235.224 416.961 236.72 419.169 238.688C421.377 240.656 423.057 243.064 424.209 245.912C425.377 248.76 425.961 251.992 425.961 255.608V287H411.585V273.464C410.993 275.784 410.081 277.872 408.849 279.728C407.633 281.568 406.153 283.136 404.409 284.432C402.681 285.728 400.705 286.72 398.481 287.408C396.273 288.096 393.873 288.44 391.281 288.44C388.577 288.44 386.113 288.064 383.889 287.312C381.681 286.576 379.785 285.528 378.201 284.168C376.633 282.792 375.417 281.144 374.553 279.224C373.689 277.304 373.257 275.168 373.257 272.816C373.257 270.304 373.753 268.064 374.745 266.096C375.753 264.112 377.193 262.44 379.065 261.08C380.953 259.704 383.257 258.656 385.977 257.936C388.697 257.2 391.785 256.832 395.241 256.832H411.585V255.608C411.585 253.784 411.321 252.152 410.793 250.712C410.265 249.272 409.505 248.056 408.513 247.064C407.521 246.056 406.297 245.288 404.841 244.76C403.401 244.232 401.761 243.968 399.921 243.968C398.065 243.968 396.457 244.192 395.097 244.64C393.753 245.072 392.633 245.696 391.737 246.512C390.857 247.328 390.201 248.328 389.769 249.512C389.353 250.68 389.145 252 389.145 253.472H374.817ZM396.729 265.568C393.737 265.568 391.473 266.072 389.937 267.08C388.401 268.072 387.633 269.536 387.633 271.472C387.633 273.488 388.433 275.04 390.033 276.128C391.649 277.2 393.953 277.736 396.945 277.736C399.057 277.736 401.001 277.472 402.777 276.944C404.569 276.4 406.113 275.656 407.409 274.712C408.721 273.768 409.745 272.648 410.481 271.352C411.217 270.056 411.585 268.648 411.585 267.128V265.568H396.729ZM446.261 287H431.885V215.96H446.261V287Z" fill="white"/>
</svg>
